<svg width="24" height="24" viewBox="0 0 24 24" fill="none" xmlns="http://www.w3.org/2000/svg">
<g id="insurance 1">
<g id="Layer 2">
<path id="Vector" d="M20.1816 4.18161C18.841 4.03958 17.5215 3.74135 16.25 3.29297C15.0836 2.88077 13.9646 2.345 12.9121 1.69482C12.6376 1.52671 12.3219 1.43774 12 1.43774C11.6781 1.43774 11.3624 1.52671 11.0879 1.69482C10.0354 2.34502 8.91643 2.88078 7.75 3.29297C6.47855 3.74136 5.15905 4.0396 3.81836 4.18164C3.38805 4.22582 2.98943 4.42809 2.6997 4.7493C2.40996 5.07051 2.24972 5.48781 2.25 5.92038V11.1157C2.25069 13.0327 2.76365 14.9147 3.73578 16.5669C4.70792 18.2191 6.10391 19.5815 7.7793 20.5132L11.1494 22.3852C11.4091 22.5308 11.7018 22.6073 11.9994 22.6074C12.2971 22.6075 12.5899 22.5311 12.8496 22.3857L16.2207 20.5132C17.8961 19.5815 19.2921 18.2191 20.2642 16.5669C21.2364 14.9147 21.7493 13.0327 21.75 11.1157V5.92038C21.7503 5.4878 21.5901 5.0705 21.3003 4.74928C21.0106 4.42807 20.612 4.22579 20.1816 4.18161Z" fill="#0DB561"/>
<path id="Vector_2" d="M11.2999 15.2334C11.0059 15.2338 10.7221 15.1256 10.503 14.9297L7.65337 12.397C7.53512 12.2925 7.43865 12.1657 7.3695 12.0238C7.30034 11.882 7.25985 11.7279 7.25035 11.5703C7.24084 11.4128 7.26252 11.255 7.31412 11.1058C7.36573 10.9567 7.44625 10.8192 7.55108 10.7012C7.65591 10.5833 7.78299 10.4871 7.92503 10.4184C8.06707 10.3496 8.22128 10.3095 8.37883 10.3005C8.53638 10.2914 8.69418 10.3135 8.84318 10.3655C8.99217 10.4175 9.12944 10.4984 9.24712 10.6035L11.2237 12.3599L15.1749 8.14551C15.3926 7.91383 15.6934 7.77797 16.0112 7.76771C16.329 7.75746 16.6379 7.87366 16.8702 8.09082C17.1023 8.30857 17.2386 8.60956 17.2491 8.92769C17.2595 9.24583 17.1432 9.55511 16.9258 9.7876L12.1758 14.8545C12.0638 14.9745 11.9281 15.0702 11.7774 15.1354C11.6267 15.2006 11.4641 15.2339 11.2999 15.2334Z" fill="white"/>
</g>
</g>
</svg>
