<svg width="81" height="80" viewBox="0 0 81 80" fill="none" xmlns="http://www.w3.org/2000/svg">
<g id="support 1" clip-path="url(#clip0_1_445)">
<path id="Vector" d="M40.5271 10.1656C41.3961 10.1656 42.1007 9.46109 42.1007 8.59203V1.57359C42.1007 0.704531 41.3961 0 40.5271 0C39.658 0 38.9535 0.704531 38.9535 1.57359V8.59203C38.9536 9.46109 39.6582 10.1656 40.5271 10.1656Z" fill="#0050C7"/>
<path id="Vector_2" d="M78.9916 54.0601L76.2117 51.2881C75.2228 50.3005 73.9049 49.7564 72.5005 49.7564C71.6025 49.7564 70.7405 49.9798 69.9766 50.3984L64.7382 45.1662L64.9933 44.9114C67.1185 42.782 67.1177 39.3219 64.9931 37.1997C64.2339 36.4391 63.2866 35.9319 62.2539 35.7184C62.3961 35.2276 62.471 34.7136 62.471 34.1875C62.471 32.7258 61.9031 31.3551 60.8753 30.3316C60.116 29.5709 59.1688 29.0637 58.1361 28.8503C58.2783 28.3595 58.3531 27.8456 58.3531 27.3194C58.3531 25.8575 57.7853 24.487 56.7558 23.4619C55.9783 22.6853 55.0225 22.1937 54.0189 21.9845C54.5558 20.1334 54.0971 18.0508 52.6408 16.592C51.4286 15.385 49.7838 14.8662 48.1986 15.0344L37.8181 13.0695C36.235 12.7692 34.258 12.5706 33.01 13.7089C32.9313 13.7808 32.851 13.8634 32.7719 13.9555C30.8369 13.2501 28.58 13.6701 27.0305 15.218C26.0025 16.2447 25.4363 17.6147 25.4363 19.0756C25.4363 19.6019 25.5108 20.1158 25.6528 20.6067C24.6213 20.82 23.6752 21.3266 22.9185 22.0847C21.8885 23.1105 21.3205 24.4789 21.3194 25.9381C21.3189 26.4656 21.3938 26.9812 21.5366 27.4734C20.5046 27.6862 19.5578 28.1919 18.7988 28.95C17.7688 29.9789 17.2016 31.3497 17.2016 32.8098C17.2016 33.9283 17.5355 34.9937 18.1542 35.8937C17.373 36.1586 16.6574 36.5994 16.0581 37.198C13.9316 39.3219 13.9308 42.7822 16.0596 44.9147L16.3138 45.1678L11.0747 50.3973C9.12768 49.4806 6.72877 49.8241 5.12206 51.4287L2.34049 54.2025C1.35112 55.1906 0.806431 56.5087 0.806274 57.9139C0.806274 59.3192 1.35112 60.6375 2.34049 61.6258L5.8119 65.093C6.42674 65.7072 7.42315 65.7066 8.03721 65.0917C8.65143 64.4769 8.65081 63.4805 8.03596 62.8664L4.56456 59.3992C4.17049 59.0056 3.95346 58.4781 3.95346 57.9141C3.95346 57.3501 4.17049 56.8228 4.56362 56.4301L7.34534 53.6562C8.04034 52.962 9.10409 52.8586 9.9119 53.3416C9.96877 53.427 10.0346 53.5083 10.1099 53.5837C10.2447 53.7189 10.3986 53.8225 10.5621 53.8983L26.5141 69.8269C26.5899 69.992 26.6939 70.1475 26.8297 70.2834C26.9619 70.4158 27.1127 70.5181 27.2727 70.5934C27.61 70.9748 27.7964 71.462 27.7964 71.9817C27.7964 72.5458 27.5794 73.0731 27.1853 73.4667L24.4064 76.2423C23.5853 77.0598 22.2497 77.0597 21.4311 76.2448L17.9597 72.7731C17.3452 72.1586 16.3489 72.1586 15.7344 72.7731C15.1199 73.3876 15.1199 74.3839 15.7344 74.9984L19.2083 78.4726C20.2308 79.4909 21.5736 79.9998 22.9171 79.9998C24.2608 79.9998 25.6052 79.4901 26.6289 78.4709L29.4096 75.6936C30.3989 74.7053 30.9438 73.3872 30.9438 71.9817C30.9438 70.9787 30.6649 70.0209 30.1463 69.195L36.0425 63.3059C36.0488 63.2995 36.055 63.2931 36.0614 63.2867C36.7366 62.5887 38.6167 62.7194 40.435 62.8456C41.7269 62.9355 43.1672 63.0353 44.5744 62.8731L51.0313 69.3223C50.613 70.085 50.3897 70.9459 50.3897 71.8425C50.3897 73.2464 50.9346 74.5637 51.9239 75.552L54.7047 78.3294C55.6935 79.317 57.0114 79.8611 58.4158 79.8611C59.82 79.8611 61.138 79.3172 62.1269 78.3294L78.9927 61.4841C79.982 60.4959 80.5269 59.1778 80.5269 57.7725C80.5267 56.3673 79.9819 55.0492 78.9916 54.0601ZM37.2322 16.1617L44.0583 17.4537L39.9725 21.538C39.3405 21.2342 38.4742 20.6676 37.5239 19.7586C36.2231 18.5142 35.2927 17.0775 35.208 16.1814C35.2078 16.1809 35.2078 16.1805 35.2078 16.18C35.2078 16.1798 35.2077 16.1797 35.2077 16.1795C35.2016 16.1151 35.2 16.0637 35.2008 16.0245C35.4066 15.9745 35.9532 15.9191 37.2322 16.1617ZM29.2544 17.4447C30.0516 16.6483 31.29 16.5564 32.1908 17.1664C32.7013 19.3067 34.5271 21.2466 35.3485 22.0325C35.9572 22.615 37.9105 24.3614 39.8821 24.8414C40.1488 25.2237 40.2939 25.6795 40.2939 26.1605C40.2939 26.78 40.0556 27.3592 39.6214 27.793C39.1885 28.2267 38.6083 28.4655 37.9877 28.4655C37.3669 28.4655 36.7867 28.2267 36.3517 27.7909L36.3516 27.7908L36.3508 27.79L29.2542 20.7062C28.8216 20.2742 28.5833 19.695 28.5833 19.0756C28.5835 18.4561 28.8217 17.8769 29.2544 17.4447ZM25.1425 24.3114C25.5755 23.8778 26.155 23.6389 26.7747 23.6389C27.3952 23.6389 27.9766 23.8783 28.4124 24.3136L34.1267 30.0166C35.0266 30.9178 35.0266 32.3844 34.1299 33.2825C33.6946 33.7161 33.1124 33.9548 32.4907 33.9548C31.8689 33.9548 31.2867 33.7161 30.8533 33.2844L30.8531 33.2842L26.518 28.95C26.5113 28.9433 26.5039 28.937 26.4971 28.9301L25.1408 27.5745C24.7056 27.1398 24.4661 26.5595 24.4666 25.9405C24.4672 25.3234 24.706 24.7461 25.1425 24.3114ZM21.0228 31.1767C21.4561 30.7441 22.0369 30.5058 22.6585 30.5058C23.2749 30.5058 23.8507 30.7406 24.2821 31.1658L28.6305 35.5122C29.0641 35.9441 29.303 36.5226 29.303 37.1414C29.303 37.76 29.0641 38.3386 28.6288 38.7722C28.1956 39.2047 27.6155 39.443 26.995 39.443C26.3736 39.443 25.7916 39.2041 25.3578 38.7722L23.7814 37.1976C23.7811 37.1972 23.7806 37.1969 23.7803 37.1966L21.023 34.4425C20.5883 34.0083 20.3489 33.4283 20.3489 32.8095C20.3489 32.1909 20.5883 31.6108 21.0228 31.1767ZM18.2822 39.4245C18.7174 38.9898 19.2989 38.7505 19.9197 38.7505C20.5403 38.7505 21.1217 38.9897 21.5567 39.4241L23.1353 41.0008C23.5691 41.4326 23.8078 42.0112 23.8078 42.63C23.8078 43.2487 23.5689 43.8272 23.1321 44.2625C22.6991 44.6961 22.1189 44.935 21.4983 44.935C20.8775 44.935 20.2974 44.6962 19.8613 44.2594L19.6636 44.0625C19.661 44.0598 19.6589 44.057 19.6564 44.0545C19.6535 44.0517 19.6503 44.0492 19.6474 44.0464L18.2838 42.6881C17.3839 41.7864 17.3832 40.3225 18.2822 39.4245ZM50.35 57.3086C49.7358 56.6936 48.7394 56.6931 48.1247 57.3072L46.7247 58.7055C45.3944 60.0358 42.9839 59.8683 40.6528 59.7066C38.1214 59.5306 35.5038 59.3491 33.8099 61.0881L28.0138 66.8772L13.5196 52.4042L18.6489 47.2841C19.4967 47.8037 20.475 48.0823 21.4986 48.0823C22.961 48.0823 24.3322 47.5155 25.3564 46.4894C26.3875 45.4625 26.9555 44.092 26.9555 42.6301C26.9555 42.6166 26.9546 42.6031 26.9546 42.5895C26.9681 42.5897 26.9817 42.5905 26.9953 42.5905C28.4557 42.5905 29.8258 42.0253 30.8514 41.0009C31.8825 39.9741 32.4505 38.6034 32.4505 37.1417C32.4505 37.1281 32.4496 37.1147 32.4496 37.1011C32.4633 37.1011 32.4771 37.102 32.491 37.102C33.9508 37.102 35.3217 36.5375 36.3542 35.5092C37.4261 34.4356 37.9563 33.0222 37.9461 31.6117C37.9602 31.6119 37.9742 31.6126 37.9883 31.6126C39.4506 31.6125 40.8217 31.0458 41.8475 30.0181C42.8755 28.9914 43.4417 27.6214 43.4417 26.1605C43.4417 25.1387 43.1639 24.162 42.646 23.3159L47.1417 18.822C47.4767 18.4884 47.8899 18.2791 48.3228 18.1926C48.3697 18.1876 48.416 18.1801 48.4617 18.1711C49.1564 18.0753 49.886 18.2897 50.4172 18.8187C51.3171 19.7201 51.3171 21.1867 50.4205 22.0848L49.0513 23.4484C49.0467 23.453 49.0419 23.457 49.0374 23.4616L47.4603 25.0359C46.8453 25.65 46.8447 26.6464 47.4589 27.2612C48.0733 27.8762 49.0696 27.8767 49.6842 27.2626L51.0589 25.8898C51.0592 25.8895 51.0596 25.8892 51.0599 25.8889L51.2677 25.6819C52.17 24.7878 53.6319 24.7897 54.5333 25.6898C54.9671 26.1217 55.206 26.7003 55.206 27.3191C55.206 27.9376 54.9671 28.5162 54.5299 28.9516L53.1528 30.3314C53.1527 30.3316 53.1525 30.3317 53.1524 30.332L51.5755 31.9025C50.9597 32.5158 50.9577 33.5122 51.571 34.1278C52.1842 34.7436 53.1805 34.7455 53.7963 34.1323L55.3803 32.5547C55.8133 32.1209 56.3935 31.8822 57.0141 31.8822C57.6349 31.8822 58.2152 32.1209 58.6513 32.5578C59.085 32.9898 59.3238 33.5684 59.3238 34.1872C59.3238 34.8058 59.085 35.3844 58.6488 35.8187L55.9035 38.5651C55.2891 39.1798 55.2892 40.1761 55.9038 40.7905C56.2111 41.0976 56.6136 41.2511 57.0163 41.2511C57.4191 41.2511 57.8219 41.0973 58.1291 40.79L59.4746 39.4441C59.4822 39.4367 59.4905 39.4303 59.4981 39.4226C59.9311 38.9889 60.5113 38.7501 61.1319 38.7501C61.7527 38.7501 62.3328 38.9889 62.7674 39.4242C63.6663 40.3222 63.6655 41.7862 62.7674 42.6859L61.3994 44.0523C61.3989 44.0528 61.3983 44.0533 61.3978 44.0537C61.3974 44.0542 61.3969 44.0548 61.3964 44.0553L59.2252 46.2239C58.6103 46.8381 58.6097 47.8345 59.2238 48.4494C59.5311 48.757 59.9342 48.9109 60.3372 48.9109C60.7396 48.9109 61.1421 48.7575 61.4492 48.4508L62.5113 47.39L67.6014 52.4742L53.1085 66.9495L47.9156 61.763C48.2777 61.5301 48.6241 61.2564 48.9492 60.9312L50.3485 59.5337C50.9636 58.9198 50.9642 57.9234 50.35 57.3086ZM76.7685 59.2573L59.9027 76.1026C59.5081 76.4967 58.98 76.7137 58.4156 76.7137C57.8513 76.7137 57.3231 76.4967 56.9285 76.1025L54.1477 73.3251C53.7536 72.9317 53.5366 72.4051 53.5366 71.8425C53.5366 71.28 53.7536 70.7534 54.1477 70.3598L71.0135 53.5145C71.4081 53.1203 71.9361 52.9033 72.5006 52.9033C73.065 52.9033 73.5931 53.1203 73.9888 53.5155L76.7686 56.2875C77.1627 56.6811 77.3797 57.2083 77.3797 57.7723C77.3796 58.3366 77.1625 58.8639 76.7685 59.2573Z" fill="#0050C7"/>
<path id="Vector_3" d="M19.632 8.83907C19.9392 9.14563 20.3413 9.29876 20.7435 9.29876C21.1467 9.29876 21.5499 9.1447 21.8573 8.83673C22.4712 8.22157 22.4703 7.22532 21.8551 6.61141L16.121 0.888758C15.506 0.274852 14.5096 0.275633 13.8957 0.890945C13.2818 1.5061 13.2827 2.50235 13.8979 3.11626L19.632 8.83907Z" fill="#0050C7"/>
<path id="Vector_4" d="M60.3107 9.29876C60.7131 9.29876 61.1156 9.14532 61.4228 8.8386L67.1525 3.11579C67.7673 2.50173 67.7679 1.50532 67.1537 0.890479C66.5396 0.275635 65.5434 0.27501 64.9284 0.889229L59.1987 6.61204C58.5839 7.2261 58.5832 8.22251 59.1975 8.83735C59.5048 9.14501 59.9078 9.29876 60.3107 9.29876Z" fill="#0050C7"/>
<path id="Vector_5" d="M10.4821 67.6881C9.87285 68.3078 9.88128 69.3042 10.5011 69.9135L10.5057 69.9178C10.8114 70.2185 11.2085 70.3681 11.6053 70.3681C12.0127 70.3681 12.42 70.2105 12.7286 69.8966C13.3378 69.2769 13.3271 68.2783 12.7074 67.6691C12.0878 67.0599 11.0916 67.0685 10.4821 67.6881Z" fill="#0050C7"/>
<path id="Vector_6" d="M54.1988 55.0417C54.4382 55.0417 54.681 54.9872 54.909 54.8723C55.6849 54.4809 55.9966 53.5347 55.6054 52.7587C55.214 51.9828 54.2676 51.6709 53.4918 52.0623L53.483 52.0667C52.7071 52.4581 52.3997 53.4022 52.791 54.1781C53.0672 54.7262 53.6229 55.0417 54.1988 55.0417Z" fill="#0050C7"/>
</g>
<defs>
<clipPath id="clip0_1_445">
<rect width="80" height="80" fill="white" transform="translate(0.666626)"/>
</clipPath>
</defs>
</svg>
