<svg width="64" height="64" viewBox="0 0 64 64" fill="none" xmlns="http://www.w3.org/2000/svg">
<g id="quest 1" clip-path="url(#clip0_1_4915)">
<g id="Fill">
<path id="Vector" d="M53 18.11V11H11V18.11C11 18.68 11.23 19.22 11.63 19.62L13.49 21.48C14.33 22.32 14.33 23.67 13.49 24.51L11.63 26.37C11.23 26.77 11 27.32 11 27.88V53H53V27.89C53 27.32 52.77 26.78 52.37 26.38L50.51 24.52C49.67 23.68 49.67 22.33 50.51 21.49L52.37 19.63C52.77 19.23 53 18.68 53 18.11Z" fill="#F8EFBA"/>
<path id="Vector_2" d="M6.39 3H4C2.34 3 1 4.34 1 6C1 7.66 2.34 9 4 9H6.39C5.94 7.02 5.94 4.98 6.39 3Z" fill="#F97F51"/>
<path id="Vector_3" d="M60.0001 3H57.6101C58.0601 4.98 58.0601 7.02 57.6101 9H60.0001C61.6601 9 63.0001 7.66 63.0001 6C63.0001 4.34 61.6601 3 60.0001 3Z" fill="#F97F51"/>
<path id="Vector_4" d="M57.61 3C57.48 2.42 57.31 1.84 57.1 1.27C57.04 1.11 56.88 1 56.71 1H32H7.28999C7.11999 1 6.95999 1.11 6.89999 1.27C6.68999 1.84 6.51999 2.42 6.38999 3C5.93999 4.97 5.93999 7.03 6.38999 9C6.51999 9.58 6.68999 10.16 6.89999 10.73C6.95999 10.89 7.11999 11 7.28999 11H32H56.71C56.88 11 57.04 10.89 57.1 10.73C57.31 10.16 57.47 9.58 57.61 9C58.06 7.03 58.06 4.97 57.61 3Z" fill="#EAB543"/>
<path id="Vector_5" d="M25.4099 19.1901L29.3699 21.0001L31.8099 17.2901C31.8999 17.1501 32.0999 17.1501 32.1899 17.2901L34.6299 21.0001L38.5899 19.1901C38.7599 19.1101 38.9399 19.2601 38.8999 19.4401L37.2899 26.8201C37.2699 26.9201 37.1799 27.0001 37.0699 27.0001H26.9299C26.8199 27.0001 26.7299 26.9301 26.7099 26.8201L25.0999 19.4401C25.0599 19.2601 25.2399 19.1101 25.4099 19.1901Z" fill="#EAB543"/>
<g id="Group">
<path id="Vector_6" d="M17 7C15.34 7 14 5.66 14 4V1H20V4C20 5.66 18.66 7 17 7Z" fill="#F97F51"/>
<path id="Vector_7" d="M46 7C44.34 7 43 5.66 43 4V1H49V4C49 5.66 47.66 7 46 7Z" fill="#F97F51"/>
<path id="Vector_8" d="M6.39 55H4C2.34 55 1 56.34 1 58C1 59.66 2.34 61 4 61H6.39C5.94 59.02 5.94 56.98 6.39 55Z" fill="#F97F51"/>
<path id="Vector_9" d="M60.0001 55H57.6101C58.0601 56.98 58.0601 59.02 57.6101 61H60.0001C61.6601 61 63.0001 59.66 63.0001 58C63.0001 56.34 61.6601 55 60.0001 55Z" fill="#F97F51"/>
</g>
<path id="Vector_10" d="M57.61 55C57.48 54.42 57.31 53.84 57.1 53.27C57.04 53.11 56.88 53 56.71 53H46C46 53.71 45.56 54.39 44.8 55C42.62 56.73 37.72 57.94 32 57.94C26.28 57.94 21.38 56.73 19.2 55C18.43 54.39 18 53.71 18 53H7.28999C7.11999 53 6.95999 53.11 6.89999 53.27C6.68999 53.84 6.51999 54.42 6.38999 55C5.93999 56.97 5.93999 59.03 6.38999 61C6.51999 61.58 6.68999 62.16 6.89999 62.73C6.95999 62.89 7.11999 63 7.28999 63H32H56.71C56.88 63 57.04 62.89 57.1 62.73C57.31 62.16 57.47 61.58 57.61 61C58.06 59.03 58.06 56.97 57.61 55Z" fill="#EAB543"/>
<path id="Vector_11" d="M45.5 53H32H18.5H18C18 53.71 18.44 54.39 19.2 55C21.38 56.73 26.28 57.94 32 57.94C37.72 57.94 42.62 56.73 44.8 55C45.57 54.39 46 53.71 46 53H45.5Z" fill="#F97F51"/>
<path id="Vector_12" d="M19.52 24C18.97 24 18.52 23.55 18.52 23C18.52 22.45 18.96 22 19.52 22H19.53C20.08 22 20.53 22.45 20.53 23C20.53 23.55 20.07 24 19.52 24Z" fill="#F97F51"/>
<path id="Vector_13" d="M44.52 24C43.97 24 43.52 23.55 43.52 23C43.52 22.45 43.96 22 44.52 22H44.53C45.08 22 45.53 22.45 45.53 23C45.53 23.55 45.07 24 44.52 24Z" fill="#F97F51"/>
</g>
<g id="Shading">
<path id="Vector_14" opacity="0.1" d="M45 46H19C18.45 46 18 45.55 18 45C18 44.45 18.45 44 19 44H45C45.55 44 46 44.45 46 45C46 45.55 45.55 46 45 46Z" fill="#2C3A47"/>
<path id="Vector_15" opacity="0.1" d="M45 40H19C18.45 40 18 39.55 18 39C18 38.45 18.45 38 19 38H45C45.55 38 46 38.45 46 39C46 39.55 45.55 40 45 40Z" fill="#2C3A47"/>
<path id="Vector_16" opacity="0.1" d="M45 34H19C18.45 34 18 33.55 18 33C18 32.45 18.45 32 19 32H45C45.55 32 46 32.45 46 33C46 33.55 45.55 34 45 34Z" fill="#2C3A47"/>
<path id="Vector_17" opacity="0.1" d="M11 11V14H32H53V11H32H11Z" fill="#2C3A47"/>
<path id="Vector_18" opacity="0.1" d="M18.5 53H32H45.5H46H53V50H46H45.5H32H18.5H18H11V53H18H18.5Z" fill="#2C3A47"/>
<path id="Vector_19" opacity="0.1" d="M6.21997 60C6.26997 60.33 6.30997 60.67 6.38997 61C6.51997 61.58 6.68997 62.16 6.89997 62.73C6.95997 62.89 7.11997 63 7.28997 63H32H56.71C56.88 63 57.04 62.89 57.1 62.73C57.31 62.16 57.47 61.58 57.61 61C57.69 60.67 57.73 60.33 57.78 60H6.21997Z" fill="#2C3A47"/>
<path id="Vector_20" opacity="0.11" d="M56.7101 1H49.0001H43.0001H32.0001H20.0001H14.0001H7.29006C7.12006 1 6.96006 1.11 6.90006 1.27C6.69006 1.84 6.52006 2.42 6.39006 3C6.35006 3.17 6.34006 3.33 6.31006 3.5H57.7001C57.6701 3.33 57.6501 3.17 57.6101 3C57.4801 2.42 57.3101 1.84 57.1001 1.27C57.0401 1.11 56.8801 1 56.7101 1Z" fill="#2C3A47"/>
</g>
</g>
<defs>
<clipPath id="clip0_1_4915">
<rect width="64" height="64" fill="white"/>
</clipPath>
</defs>
</svg>
