<svg width="65" height="64" viewBox="0 0 65 64" fill="none" xmlns="http://www.w3.org/2000/svg">
<g id="wizard 1" clip-path="url(#clip0_33_591)">
<path id="Vector" d="M10.2319 61.4409L6.98877 18.168L3.14404 18.4561L6.38721 61.729C6.43408 62.353 6.97754 62.8213 7.60156 62.7744L9.18652 62.6558C9.81055 62.6089 10.2788 62.0649 10.2319 61.4409Z" fill="#E3986D"/>
<path id="Vector_2" d="M60.0757 38.2217H58.1426L56.1719 42.1147L58.1426 46.0078H60.0757C62.2256 46.0078 63.9688 44.2646 63.9688 42.1147C63.9688 39.9644 62.2256 38.2217 60.0757 38.2217Z" fill="#FFD3BC"/>
<path id="Vector_3" d="M60.0757 43.4326H58.1426L56.8237 40.8271L56.1719 42.1147L58.1426 46.0078H60.0757C62.2256 46.0078 63.9688 44.2646 63.9688 42.1147C63.9688 41.6631 63.8911 41.23 63.7495 40.8271C63.2178 42.3442 61.7739 43.4326 60.0757 43.4326Z" fill="#FFBE9C"/>
<path id="Vector_4" d="M11.0581 38.2217H12.9912L14.9619 42.1147L12.9912 46.0078H11.0581C8.9082 46.0078 7.16504 44.2646 7.16504 42.1147C7.16504 39.9644 8.9082 38.2217 11.0581 38.2217Z" fill="#FFD3BC"/>
<path id="Vector_5" d="M12.9912 43.4326H11.0581C9.35938 43.4326 7.91553 42.3442 7.38428 40.8271C7.24268 41.23 7.16504 41.6631 7.16504 42.1147C7.16504 44.2646 8.9082 46.0078 11.0581 46.0078H12.9912L14.9619 42.1147L14.3101 40.8271L12.9912 43.4326Z" fill="#FFBE9C"/>
<path id="Vector_6" d="M12.9912 38.2217V47.2324C12.9912 48.5889 14.2954 49.5635 15.5962 49.1792L21.687 47.3789L20.0459 61.1992C19.8691 62.6895 21.0332 64 22.5337 64H48.6001C50.1006 64 51.2646 62.6895 51.0879 61.1992L49.4463 47.3789L55.5376 49.1792C56.8384 49.5635 58.1426 48.5889 58.1426 47.2324V38.2217H12.9912Z" fill="#84A3E3"/>
<path id="Vector_7" d="M23.9091 61.1992L25.1987 50.3413C25.4316 48.3794 23.582 46.8189 21.687 47.3789L20.0459 61.1992C19.8691 62.6895 21.0332 64 22.5336 64H26.3969C24.8959 64 23.7324 62.6895 23.9091 61.1992Z" fill="#5C84D9"/>
<path id="Vector_8" d="M21.6446 25.3599C15.2188 36.5835 22.0728 42.752 28.5841 45.3223C31.6192 46.5205 33.3419 47.7183 34.3165 48.6563C35.0172 49.3306 36.1168 49.3306 36.8174 48.6563C37.7921 47.7183 39.5147 46.5205 42.5494 45.3223C49.0611 42.752 55.9151 36.5835 49.4893 25.3599L35.567 21.6543L21.6446 25.3599Z" fill="#D5D4DA"/>
<path id="Vector_9" d="M31.1597 45.3228C24.6485 42.7524 17.794 36.5835 24.2198 25.3599L36.8545 21.9971L35.567 21.6543L21.6446 25.3599C15.2188 36.5835 22.0728 42.7524 28.5845 45.3223C31.6192 46.5205 33.3419 47.7183 34.3165 48.6562C35.0171 49.3301 36.1168 49.3301 36.8174 48.6562C36.8296 48.6445 36.8423 48.6323 36.8545 48.6211C35.8741 47.6885 34.1568 46.5059 31.1597 45.3228Z" fill="#A5B0BC"/>
<path id="Vector_10" d="M25.3501 25.3599C23.6148 27.5444 22.9082 33.7041 29.3521 33.7041H41.7813C48.2256 33.7041 47.5186 27.5444 45.7837 25.3599L35.5669 21.6543L25.3501 25.3599Z" fill="#FFD3BC"/>
<path id="Vector_11" d="M6.98877 18.168L3.14404 18.4561L3.70898 25.9956C4.1499 26.0742 4.60156 26.1167 5.06152 26.1167C5.42725 26.1167 5.79688 26.0903 6.16064 26.0391C6.64307 25.9707 7.10791 25.8574 7.55371 25.7075L6.98877 18.168Z" fill="#D97C40"/>
<path id="Vector_12" d="M8.96814 17.7588C8.66296 15.604 6.66834 14.1045 4.51355 14.4097C2.35828 14.7148 0.858764 16.709 1.16394 18.8643C1.46912 21.019 3.46326 22.5186 5.61853 22.2139C7.77332 21.9087 9.27332 19.9141 8.96814 17.7588Z" fill="#EBEBEB"/>
<path id="Vector_13" d="M3.73962 17.5767C3.56921 16.375 3.96082 15.2231 4.71423 14.3862C4.64783 14.3926 4.58093 14.3999 4.51404 14.4097C2.35876 14.7148 0.859253 16.7095 1.16443 18.8643C1.4696 21.0195 3.46423 22.519 5.61902 22.2139C6.57214 22.0791 7.39685 21.6133 7.99402 20.9497C5.91687 21.1377 4.03552 19.665 3.73962 17.5767Z" fill="#D5D4DA"/>
<path id="Vector_14" d="M42.3779 30.4639C41.8447 30.4639 41.4121 30.0312 41.4121 29.498V28.0449C41.4121 27.5117 41.8447 27.0791 42.3779 27.0791C42.9116 27.0791 43.3438 27.5117 43.3438 28.0449V29.498C43.3438 30.0312 42.9116 30.4639 42.3779 30.4639Z" fill="#3D4851"/>
<path id="Vector_15" d="M28.7554 30.4639C28.2222 30.4639 27.7896 30.0312 27.7896 29.498V28.0449C27.7896 27.5117 28.2222 27.0791 28.7554 27.0791C29.2891 27.0791 29.7212 27.5117 29.7212 28.0449V29.498C29.7212 30.0312 29.2891 30.4639 28.7554 30.4639Z" fill="#3D4851"/>
<path id="Vector_16" d="M46.9185 17.9482L35.5669 20.2622L24.2153 17.9482L26.562 13.2793L35.5669 10.2378L44.5718 13.2793L46.9185 17.9482Z" fill="#E3986D"/>
<path id="Vector_17" d="M28.0781 17.9482L30.4248 13.2793L37.4985 10.8901L35.5669 10.2378L26.562 13.2793L24.2153 17.9482L35.5669 20.2622L37.4985 19.8687L28.0781 17.9482Z" fill="#D97C40"/>
<path id="Vector_18" d="M53.6181 25.3599H17.5155C15.8681 25.3599 15.1288 23.2998 16.3974 22.2485C19.2826 19.8569 24.2147 17.9482 24.2147 17.9482H46.9184C46.9184 17.9482 51.8505 19.8569 54.7357 22.2485C56.0043 23.2998 55.2655 25.3599 53.6181 25.3599Z" fill="#84A3E3"/>
<path id="Vector_19" d="M20.2607 22.2485C23.1459 19.8569 28.0781 17.9482 28.0781 17.9482H24.2153C24.2153 17.9482 19.2826 19.8569 16.3974 22.2485C15.1293 23.2998 15.8681 25.3599 17.5156 25.3599H21.3788C19.7314 25.3599 18.9921 23.2998 20.2607 22.2485Z" fill="#5C84D9"/>
<path id="Vector_20" d="M44.5718 13.2793H26.562L32.1729 2.11523C32.4902 1.46777 32.9785 0.939453 33.5669 0.571777C34.1558 0.20459 34.8457 0 35.5669 0C37.0088 0 38.3262 0.819824 38.9609 2.11523L44.5718 13.2793Z" fill="#84A3E3"/>
<path id="Vector_21" d="M37.4302 0.571777C37.4526 0.558106 37.4761 0.545899 37.4985 0.532715C36.9243 0.191406 36.2607 0 35.5669 0C34.8457 0 34.1558 0.20459 33.5669 0.571777C32.9785 0.939453 32.4902 1.46777 32.1729 2.11523L26.5615 13.2793H30.4248L36.0356 2.11523C36.3535 1.46777 36.8418 0.939453 37.4302 0.571777Z" fill="#5C84D9"/>
<path id="Vector_22" d="M35.567 35.5459C37.8511 38.4009 41.2164 37.2178 42.9913 36.2798C43.4219 36.0527 43.4527 35.4546 43.0538 35.1758C42.0362 34.4638 41.4439 32.9048 40.6036 32.1216C39.2979 30.9048 37.0484 30.1655 35.567 31.5083C34.0855 30.1655 31.836 30.9048 30.5308 32.1216C29.69 32.9048 29.0977 34.4638 28.0801 35.1758C27.6812 35.4551 27.712 36.0527 28.1426 36.2798C29.9175 37.2178 33.2828 38.4009 35.567 35.5459Z" fill="#EBEBEB"/>
</g>
<defs>
<clipPath id="clip0_33_591">
<rect width="64" height="64" fill="white" transform="translate(0.5)"/>
</clipPath>
</defs>
</svg>
