<svg width="65" height="64" viewBox="0 0 65 64" fill="none" xmlns="http://www.w3.org/2000/svg">
<g id="storm 1" clip-path="url(#clip0_33_536)">
<g id="Group">
<g id="Group_2">
<path id="Vector" d="M55.125 31.375H37.625C36.5895 31.375 35.75 30.5355 35.75 29.5C35.75 28.4645 36.5895 27.625 37.625 27.625H55.125C58.2266 27.625 60.75 25.1016 60.75 22C60.75 18.8984 58.2266 16.375 55.125 16.375C52.0234 16.375 49.5 18.8984 49.5 22C49.5 23.0355 48.6605 23.875 47.625 23.875C46.5895 23.875 45.75 23.0355 45.75 22C45.75 16.8306 49.9556 12.625 55.125 12.625C60.2944 12.625 64.5 16.8306 64.5 22C64.5 27.1694 60.2944 31.375 55.125 31.375Z" fill="#00C0F1"/>
</g>
<g id="Group_3">
<path id="Vector_2" d="M40.125 61.375C34.9556 61.375 30.75 57.1694 30.75 52C30.75 50.9645 31.5895 50.125 32.625 50.125C33.6605 50.125 34.5 50.9645 34.5 52C34.5 55.1016 37.0234 57.625 40.125 57.625C43.2266 57.625 45.75 55.1016 45.75 52C45.75 48.8984 43.2266 46.375 40.125 46.375H7.625C6.5895 46.375 5.75 45.5355 5.75 44.5C5.75 43.4645 6.5895 42.625 7.625 42.625H40.125C45.2944 42.625 49.5 46.8306 49.5 52C49.5 57.1694 45.2944 61.375 40.125 61.375Z" fill="#51FAFF"/>
</g>
<g id="Group_4">
<path id="Vector_3" d="M40.125 42.625H32.5V46.375H40.125C43.2266 46.375 45.75 48.8984 45.75 52C45.75 55.1016 43.2266 57.625 40.125 57.625C37.0234 57.625 34.5 55.1016 34.5 52C34.5 50.9645 33.6605 50.125 32.625 50.125C32.5828 50.125 32.5415 50.1286 32.5 50.1312V57.4441C34.2023 59.8215 36.9847 61.375 40.125 61.375C45.2944 61.375 49.5 57.1694 49.5 52C49.5 46.8306 45.2944 42.625 40.125 42.625Z" fill="#00C0F1"/>
</g>
<g id="Group_5">
<path id="Vector_4" d="M10.125 38.875H2.375C1.3395 38.875 0.5 38.0355 0.5 37C0.5 35.9645 1.3395 35.125 2.375 35.125H10.125C11.1605 35.125 12 35.9645 12 37C12 38.0355 11.1605 38.875 10.125 38.875Z" fill="#51FAFF"/>
</g>
<path id="Vector_5" d="M18.7008 55.7993L13.7008 50.7993C12.9685 50.0671 11.7814 50.0671 11.0491 50.7993C10.3169 51.5316 10.3169 52.7187 11.0491 53.4509L12.8484 55.2501H2.375C1.3395 55.2501 0.5 56.0896 0.5 57.1251C0.5 58.1606 1.3395 59.0001 2.375 59.0001H12.8484L11.0491 60.7993C10.3169 61.5316 10.3169 62.7187 11.0491 63.4509C11.7814 64.1832 12.9685 64.1832 13.7008 63.4509L18.7008 58.4509C19.433 57.7187 19.433 56.5316 18.7008 55.7993Z" fill="#00607F"/>
<g id="Group_6">
<path id="Vector_6" d="M30.125 31.375H25.125C24.0895 31.375 23.25 30.5355 23.25 29.5C23.25 28.4645 24.0895 27.625 25.125 27.625H30.125C31.1605 27.625 32 28.4645 32 29.5C32 30.5355 31.1605 31.375 30.125 31.375Z" fill="#51FAFF"/>
</g>
<path id="Vector_7" d="M31.9645 13.8174C36.4111 9.37076 36.0634 2.08951 36.0464 1.78176C35.9936 0.827508 35.2316 0.0656335 34.2775 0.0128835C33.9693 -0.00436651 26.6884 -0.351867 22.2419 4.09476C18.6005 7.73613 18.1744 13.2775 18.1488 15.3345C16.0429 18.0296 16.2275 21.9451 18.7064 24.424C19.4386 25.1563 20.6258 25.1563 21.358 24.424C22.0903 23.6918 22.0903 22.5046 21.358 21.7724C20.3106 20.7249 20.1645 19.1131 20.918 17.9071C23.1109 17.8565 28.432 17.3499 31.9645 13.8174Z" fill="#00CCB2"/>
<g id="Group_7">
<g id="Group_8">
<path id="Vector_8" d="M21.358 21.7722C20.3106 20.7247 20.1645 19.113 20.918 17.907C23.111 17.8565 28.432 17.3497 31.9646 13.8172C36.4112 9.37058 36.0635 2.08933 36.0465 1.78158C36.0201 1.30446 35.8165 0.875457 35.5001 0.559082L16.7003 19.3583C16.6458 21.1862 17.3142 23.0316 18.7065 24.4238C19.4387 25.1561 20.6258 25.1561 21.3581 24.4238C22.0902 23.6916 22.0902 22.5045 21.358 21.7722Z" fill="#00969C"/>
</g>
</g>
<g id="Group_9">
<path id="Vector_9" d="M46.375 38.875H17.625C16.5895 38.875 15.75 38.0355 15.75 37C15.75 35.9645 16.5895 35.125 17.625 35.125H46.375C47.4105 35.125 48.25 35.9645 48.25 37C48.25 38.0355 47.4105 38.875 46.375 38.875Z" fill="#51FAFF"/>
</g>
<g id="Group_10">
<path id="Vector_10" d="M46.375 35.125H32.5V38.875H46.375C47.4105 38.875 48.25 38.0355 48.25 37C48.25 35.9645 47.4105 35.125 46.375 35.125Z" fill="#00C0F1"/>
</g>
</g>
</g>
<defs>
<clipPath id="clip0_33_536">
<rect width="64" height="64" fill="white" transform="translate(0.5)"/>
</clipPath>
</defs>
</svg>
