<svg width="65" height="64" viewBox="0 0 65 64" fill="none" xmlns="http://www.w3.org/2000/svg">
<g id="shield 1" clip-path="url(#clip0_33_617)">
<path id="Vector" d="M16.8869 13.8424L12.1565 18.5728L55.8666 61.6614L60.124 61.1884L60.597 56.931L16.8869 13.8424Z" fill="#B7E4F8"/>
<path id="Vector_2" d="M16.8869 13.8424L13.7688 15.5799L60.124 61.1884L60.597 56.931L16.8869 13.8424Z" fill="#93D6F4"/>
<g id="Group">
<path id="Vector_3" d="M15.6505 8.8743L4.35913 6.04504L7.18839 17.3363L12.3599 21.0303L19.3444 14.0458L15.6505 8.8743Z" fill="#DC3910"/>
<path id="Vector_4" d="M15.6505 8.8743L4.35913 6.04504L7.18839 17.3363L12.3599 21.0303L19.3444 14.0458L15.6505 8.8743Z" fill="#DC3910"/>
</g>
<path id="Vector_5" d="M15.6505 8.8743L4.35913 6.04504L15.1067 16.7926L19.3444 14.0458L15.6505 8.8743Z" fill="#942308"/>
<g id="Group_2">
<path id="Vector_6" d="M9.83062 23.5582L21.8716 11.5172L19.2108 8.85639L7.16979 20.8974L9.83062 23.5582Z" fill="#FFC266"/>
<path id="Vector_7" d="M9.61258 6.74096C9.61258 5.52358 9.13858 4.3792 8.2777 3.51845C6.50082 1.74157 3.60957 1.74157 1.83257 3.51845C0.0558116 5.29545 0.0558116 8.18671 1.83257 9.96359C2.69332 10.8245 3.83782 11.2985 5.05507 11.2985C6.27245 11.2985 7.41695 10.8245 8.27758 9.96359C9.13858 9.10296 9.61258 7.95833 9.61258 6.74096Z" fill="#FFC266"/>
</g>
<path id="Vector_8" d="M8.27766 9.96359C9.13853 9.10296 9.61253 7.95833 9.61253 6.74096C9.61253 5.52358 9.13853 4.3792 8.27766 3.51845C6.50078 1.74157 3.60952 1.74157 1.83252 3.51845" fill="#FFAE33"/>
<path id="Vector_9" d="M48.1133 13.8424L52.8436 18.5728L9.13346 61.6614L4.87608 61.1884L4.40308 56.931L48.1133 13.8424Z" fill="#B7E4F8"/>
<path id="Vector_10" d="M48.1133 13.8424L51.2314 15.5799L4.87608 61.1884L4.40308 56.931L48.1133 13.8424Z" fill="#93D6F4"/>
<g id="Group_3">
<path id="Vector_11" d="M49.3496 8.8743L60.6409 6.04504L57.8117 17.3363L52.6402 21.0303L45.6558 14.0458L49.3496 8.8743Z" fill="#DC3910"/>
<path id="Vector_12" d="M49.3496 8.8743L60.6409 6.04504L57.8117 17.3363L52.6402 21.0303L45.6558 14.0458L49.3496 8.8743Z" fill="#DC3910"/>
</g>
<path id="Vector_13" d="M49.3496 8.8743L60.6409 6.04504L49.8935 16.7926L45.6558 14.0458L49.3496 8.8743Z" fill="#942308"/>
<g id="Group_4">
<path id="Vector_14" d="M57.8291 20.8991L45.7881 8.85815L43.1273 11.519L55.1682 23.5599L57.8291 20.8991Z" fill="#FFC266"/>
<path id="Vector_15" d="M55.3875 6.74096C55.3875 5.52358 55.8615 4.3792 56.7223 3.51845C58.4992 1.74157 61.3905 1.74157 63.1675 3.51845C64.9443 5.29545 64.9443 8.18671 63.1675 9.96359C62.3067 10.8245 61.1622 11.2985 59.945 11.2985C58.7276 11.2985 57.5831 10.8245 56.7225 9.96359C55.8616 9.10296 55.3875 7.95833 55.3875 6.74096Z" fill="#FFC266"/>
</g>
<path id="Vector_16" d="M56.7223 9.96359C55.8615 9.10284 55.3875 7.95833 55.3875 6.74096C55.3875 5.52358 55.8615 4.3792 56.7223 3.51845C58.4992 1.74157 61.3905 1.74157 63.1675 3.51845" fill="#FFAE33"/>
<path id="Vector_17" d="M48.5665 23.0511C48.2728 22.845 41.2701 18 32.5001 18C23.73 18 16.7275 22.8449 16.4337 23.0511L15.6948 23.5698V24.4726C15.6948 30.2029 16.5163 35.6003 18.1366 40.5152C19.4401 44.4691 21.26 48.1197 23.5458 51.3654C27.4742 56.9437 31.4257 59.4038 31.5921 59.5058L32.5002 60.0627L33.4084 59.5058C33.5746 59.4038 37.5262 56.9437 41.4545 51.3654C43.7404 48.1194 45.5603 44.4689 46.8638 40.5152C48.4841 35.6003 49.3055 30.2029 49.3055 24.4726V23.5698L48.5665 23.0511Z" fill="#DC3910"/>
<path id="Vector_18" d="M32.5 60.063L33.4081 59.5061C33.5744 59.4041 37.526 56.9439 41.4543 51.3657C43.7401 48.1197 45.56 44.4692 46.8635 40.5154C48.4839 35.6005 49.3053 30.2031 49.3053 24.4729V23.57L48.5664 23.0514C48.2727 22.8451 41.27 18.0002 32.5 18.0002" fill="#942308"/>
<path id="Vector_19" d="M49.9042 21.7207C49.586 21.4973 42.0002 16.2489 32.5001 16.2489C22.9998 16.2489 15.4142 21.4972 15.0959 21.7207L14.2954 22.2825V23.2605C14.2954 29.4678 15.1854 35.3148 16.9405 40.6388C18.3525 44.9218 20.324 48.8765 22.8003 52.3926C27.0557 58.4354 31.3364 61.1002 31.5166 61.2107L32.5002 61.8141L33.4839 61.2107C33.6641 61.1002 37.9447 58.4354 42.2001 52.3926C44.6762 48.8765 46.6479 44.9218 48.0599 40.6388C49.815 35.3148 50.705 29.4679 50.705 23.2605V22.2825L49.9042 21.7207ZM44.5288 39.3297C43.252 43.2437 41.4717 46.855 39.2375 50.0631C37.5802 52.4427 35.8403 54.3329 34.3816 55.698V46.9571C34.5743 46.6845 34.7652 46.4091 34.9498 46.13C38.1392 41.3081 40.1281 35.5914 40.8615 29.1392L41.0278 27.6757L39.647 27.1629C37.8375 26.4909 36.074 26.061 34.3816 25.8752V20.092C40.1983 20.5792 45.0702 23.1709 46.933 24.2887C46.8419 29.6602 46.0342 34.7151 44.5288 39.3297ZM20.5143 39.4606C18.9813 34.8104 18.1592 29.7108 18.067 24.2887C19.9298 23.1708 24.8017 20.5793 30.6186 20.092V25.8734C28.9174 26.0574 27.1536 26.4854 25.3521 27.1547L23.9718 27.6674L24.1379 29.1304C24.8706 35.5864 26.8599 41.3058 30.0506 46.1297C30.2347 46.4082 30.4254 46.6837 30.6187 46.9568V55.701C29.2657 54.4421 27.5772 52.6402 25.8768 50.2257C23.6143 47.0132 21.8101 43.3912 20.5143 39.4606ZM28.0747 30.2126C29.6192 29.7604 31.1024 29.5318 32.5001 29.5318C33.8876 29.5318 35.3706 29.7627 36.9245 30.2198C36.2106 34.9828 34.7262 39.2578 32.5001 42.9618C30.2727 39.2559 28.7879 34.9789 28.0747 30.2126Z" fill="#FFC266"/>
<path id="SVGCleanerId_0" d="M49.9042 21.7207C49.5859 21.4973 42.0002 16.2489 32.5 16.2489C32.4909 16.2489 32.4818 16.2492 32.4727 16.2492V29.5324C32.4817 29.5324 32.4909 29.5319 32.5 29.5319C33.8875 29.5319 35.3705 29.7628 36.9244 30.2199C36.2105 34.9829 34.7262 39.2579 32.5 42.962C32.4908 42.9465 32.4819 42.9305 32.4727 42.9151V61.7975L32.5 61.8142L33.4838 61.2109C33.6639 61.1004 37.9445 58.4355 42.1999 52.3927C44.6761 48.8766 46.6477 44.922 48.0597 40.6389C49.8148 35.3149 50.7048 29.4681 50.7048 23.2607V22.2827L49.9042 21.7207ZM44.5288 39.3297C43.2519 43.2437 41.4717 46.855 39.2374 50.0631C37.5802 52.4427 35.8403 54.3329 34.3815 55.698V46.9571C34.5743 46.6845 34.7652 46.4091 34.9498 46.13C38.1392 41.3081 40.128 35.5914 40.8614 29.1392L41.0278 27.6757L39.6469 27.1629C37.8374 26.4909 36.0739 26.061 34.3815 25.8752V20.092C40.1983 20.5792 45.0702 23.1709 46.9329 24.2887C46.8418 29.6602 46.0342 34.7151 44.5288 39.3297Z" fill="#FFAE33"/>
<g id="Group_5">
<path id="SVGCleanerId_0_1_" d="M49.9042 21.7207C49.5859 21.4973 42.0002 16.2489 32.5 16.2489C32.4909 16.2489 32.4818 16.2492 32.4727 16.2492V29.5324C32.4817 29.5324 32.4909 29.5319 32.5 29.5319C33.8875 29.5319 35.3705 29.7628 36.9244 30.2199C36.2105 34.9829 34.7262 39.2579 32.5 42.962C32.4908 42.9465 32.4819 42.9305 32.4727 42.9151V61.7975L32.5 61.8142L33.4838 61.2109C33.6639 61.1004 37.9445 58.4355 42.1999 52.3927C44.6761 48.8766 46.6477 44.922 48.0597 40.6389C49.8148 35.3149 50.7048 29.4681 50.7048 23.2607V22.2827L49.9042 21.7207ZM44.5288 39.3297C43.2519 43.2437 41.4717 46.855 39.2374 50.0631C37.5802 52.4427 35.8403 54.3329 34.3815 55.698V46.9571C34.5743 46.6845 34.7652 46.4091 34.9498 46.13C38.1392 41.3081 40.128 35.5914 40.8614 29.1392L41.0278 27.6757L39.6469 27.1629C37.8374 26.4909 36.0739 26.061 34.3815 25.8752V20.092C40.1983 20.5792 45.0702 23.1709 46.9329 24.2887C46.8418 29.6602 46.0342 34.7151 44.5288 39.3297Z" fill="#FFAE33"/>
</g>
</g>
<defs>
<clipPath id="clip0_33_617">
<rect width="64" height="64" fill="white" transform="translate(0.5)"/>
</clipPath>
</defs>
</svg>
