<svg width="65" height="64" viewBox="0 0 65 64" fill="none" xmlns="http://www.w3.org/2000/svg">
<g id="map 1" clip-path="url(#clip0_33_444)">
<g id="Page-1">
<g id="072---Reading-Map">
<path id="Shape" d="M22.9332 29.3848C22.3049 28.4944 21.8104 27.5166 21.4656 26.4828C19.6374 26.4828 18.1553 25.0007 18.1553 23.1724C18.1553 21.3407 19.6339 18.7586 21.4656 18.7586V17.611C21.4646 17.0266 21.9194 16.5427 22.5029 16.5076C24.8973 16.3531 30.7567 15.6138 32.5001 12.1379C34.2435 15.6138 40.1029 16.3531 42.4973 16.5076C43.0808 16.5427 43.5356 17.0266 43.5346 17.611V18.7586C45.3663 18.7586 46.8449 21.3407 46.8449 23.1724C46.8449 25.0007 45.3628 26.4828 43.5346 26.4828C43.2191 27.4369 42.7736 28.3429 42.2104 29.1752L22.9332 29.3848Z" fill="#FDD7AD"/>
<path id="Shape_2" d="M62.9662 25.9531L49.471 31.7241C49.205 31.8435 48.9015 31.8475 48.6324 31.7351L42.2103 29.1751L32.9193 25.4565C32.6492 25.3497 32.3479 25.3536 32.0807 25.4675L22.9331 29.3848L17.471 31.7241C17.205 31.8435 16.9015 31.8475 16.6324 31.7351L2.01172 25.8979C1.67351 25.7597 1.28867 25.799 0.985353 26.0027C0.682032 26.2063 0.500052 26.5477 0.5 26.9131V56.7282C0.504055 57.1764 0.778786 57.5776 1.19517 57.7434L16.6324 63.9227C16.9025 64.0296 17.2038 64.0256 17.471 63.9117L32.0807 57.6551C32.3467 57.5357 32.6503 57.5317 32.9193 57.6441L48.6324 63.9227C48.9025 64.0296 49.2038 64.0256 49.471 63.9117L63.8269 57.7544C64.2346 57.5818 64.4996 57.1821 64.5 56.7393V26.9572C64.4999 26.5877 64.3136 26.2431 64.0044 26.0407C63.6953 25.8383 63.3049 25.8053 62.9662 25.9531Z" fill="#F9EAB0"/>
<path id="Shape_3" d="M60.0862 33.6552V53.8262C60.088 54.2696 59.8222 54.6704 59.4131 54.8414L49.4159 59.1338C49.2999 59.1805 49.1767 59.2066 49.0518 59.211V36.2372C49.7961 36.2363 50.5322 36.0823 51.2145 35.7848L58.5524 32.64C58.8931 32.4957 59.2833 32.5317 59.5918 32.7359C59.9003 32.9401 60.0859 33.2852 60.0862 33.6552Z" fill="#F0C419"/>
<path id="Shape_4" d="M49.0517 36.2372V59.211C48.8869 59.2335 48.719 59.2106 48.5662 59.1448L34.5634 53.5393C33.9099 53.2806 33.2139 53.1459 32.511 53.1421H32.5V30.1683C32.6648 30.1458 32.8327 30.1687 32.9855 30.2345L46.9883 35.84C47.6418 36.0987 48.3378 36.2335 49.0407 36.2372H49.0517Z" fill="#F3D55B"/>
<path id="Shape_5" d="M32.5 30.1683V53.1421C31.7557 53.1431 31.0196 53.2971 30.3373 53.5945L17.4159 59.1339C17.2999 59.1805 17.1767 59.2067 17.0518 59.2111V36.2373C17.7961 36.2363 18.5322 36.0824 19.2145 35.7849L32.1359 30.2456C32.2519 30.1989 32.3751 30.1728 32.5 30.1683Z" fill="#F0C419"/>
<path id="Shape_6" d="M17.0517 36.2372V59.211C16.8869 59.2335 16.7191 59.2106 16.5662 59.1448L5.60899 54.7641C5.19087 54.5944 4.91641 54.1892 4.91382 53.7379V33.4345C4.91346 33.0684 5.09466 32.726 5.39752 32.5204C5.70037 32.3149 6.08547 32.2728 6.42554 32.4083L14.9883 35.84C15.6418 36.0987 16.3378 36.2334 17.0407 36.2372H17.0517Z" fill="#F3D55B"/>
<path id="Shape_7" d="M50.144 13.2414H14.8558C14.5044 13.2463 14.1721 13.0823 13.9623 12.8004C13.7526 12.5185 13.6909 12.1531 13.7965 11.818C14.4062 10.0284 16.0879 8.82588 17.9785 8.82764H47.0213C48.9148 8.82748 50.5974 10.0351 51.2033 11.829C51.3051 12.1627 51.2415 12.525 51.0322 12.8041C50.8229 13.0832 50.4929 13.2457 50.144 13.2414Z" fill="#A56A43"/>
<path id="Shape_8" d="M43.5345 8.82759H21.4656L24.9635 1.83172C25.5232 0.710695 26.6678 0.00171353 27.9207 0H37.0794C38.3323 0.00171353 39.477 0.710695 40.0366 1.83172L43.5345 8.82759Z" fill="#CB8252"/>
<path id="Oval" d="M29.1896 5.5172C29.799 5.5172 30.2931 5.02317 30.2931 4.41375C30.2931 3.80433 29.799 3.3103 29.1896 3.3103C28.5802 3.3103 28.0862 3.80433 28.0862 4.41375C28.0862 5.02317 28.5802 5.5172 29.1896 5.5172Z" fill="#F0C419"/>
<path id="Oval_2" d="M35.8102 5.5172C36.4197 5.5172 36.9137 5.02317 36.9137 4.41375C36.9137 3.80433 36.4197 3.3103 35.8102 3.3103C35.2008 3.3103 34.7068 3.80433 34.7068 4.41375C34.7068 5.02317 35.2008 5.5172 35.8102 5.5172Z" fill="#F0C419"/>
<path id="Shape_9" d="M32.5001 13.2413C30.7567 16.7172 24.8973 17.4565 22.5029 17.611C21.9194 17.6461 21.4646 18.13 21.4656 18.7144V19.862C19.6374 19.862 18.1553 21.3441 18.1553 23.1724V15.7131C18.1548 14.8174 18.4539 13.9474 19.0049 13.2413H32.5001Z" fill="#3F5C6C"/>
<path id="Shape_10" d="M46.8448 15.7131V23.1724C46.8448 21.3441 45.3627 19.862 43.5345 19.862V18.7144C43.5355 18.13 43.0807 17.6461 42.4972 17.611C40.1028 17.4565 34.2434 16.7172 32.5 13.2413H45.9952C46.5462 13.9474 46.8453 14.8174 46.8448 15.7131Z" fill="#35495E"/>
<g id="Group">
<path id="Shape_11" d="M9.32761 43.0345C8.88138 43.0344 8.47913 42.7656 8.30838 42.3533C8.13763 41.941 8.23199 41.4665 8.54747 41.1509L10.7544 38.944C11.1873 38.5259 11.8756 38.5318 12.3012 38.9575C12.7268 39.3831 12.7328 40.0713 12.3146 40.5043L10.1077 42.7112C9.90086 42.9182 9.62024 43.0345 9.32761 43.0345Z" fill="#F29C1F"/>
<path id="Shape_12" d="M53.4656 41.931C53.0193 41.9309 52.6171 41.6621 52.4463 41.2498C52.2756 40.8375 52.3699 40.363 52.6854 40.0474L54.8923 37.8405C55.3253 37.4223 56.0135 37.4283 56.4391 37.854C56.8648 38.2796 56.8708 38.9678 56.4526 39.4008L54.2457 41.6077C54.0388 41.8146 53.7582 41.9309 53.4656 41.931Z" fill="#F29C1F"/>
<path id="Shape_13" d="M21.4655 41.931C21.0193 41.9309 20.6171 41.6621 20.4463 41.2498C20.2756 40.8375 20.3699 40.363 20.6854 40.0474L22.8923 37.8405C23.3253 37.4223 24.0135 37.4283 24.4391 37.854C24.8648 38.2796 24.8708 38.9678 24.4526 39.4008L22.2457 41.6077C22.0388 41.8146 21.7582 41.9309 21.4655 41.931Z" fill="#F29C1F"/>
<path id="Shape_14" d="M21.4655 48.5517C21.0193 48.5516 20.6171 48.2828 20.4463 47.8705C20.2756 47.4582 20.3699 46.9837 20.6854 46.6681L27.3061 40.0474C27.7391 39.6292 28.4273 39.6352 28.8529 40.0609C29.2786 40.4865 29.2846 41.1747 28.8664 41.6077L22.2457 48.2284C22.0388 48.4353 21.7582 48.5516 21.4655 48.5517Z" fill="#F29C1F"/>
<path id="Shape_15" d="M36.9138 40.8276C36.4676 40.8275 36.0653 40.5587 35.8946 40.1464C35.7238 39.7341 35.8182 39.2596 36.1337 38.944L38.3406 36.7371C38.7735 36.3189 39.4618 36.3249 39.8874 36.7506C40.313 37.1762 40.319 37.8644 39.9008 38.2974L37.6939 40.5043C37.487 40.7112 37.2064 40.8275 36.9138 40.8276Z" fill="#F29C1F"/>
<path id="Shape_16" d="M36.9138 47.4483C36.4676 47.4482 36.0653 47.1794 35.8946 46.7671C35.7238 46.3548 35.8182 45.8803 36.1337 45.5647L42.7543 38.944C43.1873 38.5259 43.8755 38.5318 44.3012 38.9575C44.7268 39.3831 44.7328 40.0713 44.3146 40.5043L37.6939 47.125C37.487 47.3319 37.2064 47.4482 36.9138 47.4483Z" fill="#F29C1F"/>
</g>
</g>
</g>
</g>
<defs>
<clipPath id="clip0_33_444">
<rect width="64" height="64" fill="white" transform="translate(0.5)"/>
</clipPath>
</defs>
</svg>
