<svg width="93" height="18" viewBox="0 0 93 18" fill="none" xmlns="http://www.w3.org/2000/svg">
<g id="Trustpilot ratings 5star RGB">
<g id="Group">
<path id="Rectangle path" d="M16.7289 0.635498H0V17.3644H16.7289V0.635498Z" fill="#0066FF"/>
<path id="Rectangle path_2" d="M35.6884 0.635498H18.9595V17.3644H35.6884V0.635498Z" fill="#0066FF"/>
<path id="Rectangle path_3" d="M54.6476 0.635498H37.9187V17.3644H54.6476V0.635498Z" fill="#0066FF"/>
<path id="Rectangle path_4" d="M73.6073 0.635498H56.8784V17.3644H73.6073V0.635498Z" fill="#0066FF"/>
<path id="Rectangle path_5" d="M92.5668 0.635498H75.8379V17.3644H92.5668V0.635498Z" fill="#0066FF"/>
<path id="Shape" d="M8.36438 11.6355L10.5451 11.0515L11.4562 14.0186L8.36438 11.6355ZM13.3831 7.80045H9.54437L8.36438 3.9812L7.18439 7.80045H3.3457L6.4525 10.1677L5.27252 13.987L8.37932 11.6197L10.2912 10.1677L13.3831 7.80045Z" fill="white"/>
<path id="Shape_2" d="M27.3241 11.6355L29.5048 11.0515L30.416 14.0186L27.3241 11.6355ZM32.3428 7.80045H28.5041L27.3241 3.9812L26.1441 7.80045H22.3054L25.4122 10.1677L24.2322 13.987L27.339 11.6197L29.2509 10.1677L32.3428 7.80045Z" fill="white"/>
<path id="Shape_3" d="M46.2833 11.6355L48.4641 11.0515L49.3752 14.0186L46.2833 11.6355ZM51.302 7.80045H47.4633L46.2833 3.9812L45.1033 7.80045H41.2646L44.3714 10.1677L43.1915 13.987L46.2983 11.6197L48.2101 10.1677L51.302 7.80045Z" fill="white"/>
<path id="Shape_4" d="M65.2428 11.6355L67.4235 11.0515L68.3347 14.0186L65.2428 11.6355ZM70.2615 7.80045H66.4228L65.2428 3.9812L64.0628 7.80045H60.2241L63.3309 10.1677L62.1509 13.987L65.2577 11.6197L67.1696 10.1677L70.2615 7.80045Z" fill="white"/>
<path id="Shape_5" d="M84.202 11.6355L86.3828 11.0515L87.2939 14.0186L84.202 11.6355ZM89.2207 7.80045H85.382L84.202 3.9812L83.022 7.80045H79.1833L82.2902 10.1677L81.1102 13.987L84.217 11.6197L86.1288 10.1677L89.2207 7.80045Z" fill="white"/>
</g>
</g>
</svg>
