<svg width="118" height="59" viewBox="0 0 118 59" fill="none" xmlns="http://www.w3.org/2000/svg">
<path d="M54.4259 13.6288C70.8826 7.15299 77.1143 18.4523 78.7173 27.7039L83.195 27.6293C82.4244 22.6163 80.3856 16.4257 75.8537 12.1407C73.322 9.74687 70.0658 8.01023 66.0562 7.46535C62.9737 7.04646 59.613 7.35324 55.9744 8.41527C52.4991 4.59008 46.1973 0 37.6738 0C25.4913 0 16.9743 9.72556 15.0642 19.3465C12.4432 19.8794 9.51638 21.006 6.91061 23.0612C2.86127 26.255 0 31.3767 0 38.7123C0 46.2859 3.047 51.5068 7.23206 54.7153C11.2091 57.7642 15.8787 58.7514 19.0896 58.7514H79.3721L79.582 58.7313C82.082 58.493 85.2963 57.2147 87.8927 54.4121C89.4863 52.6919 90.7615 50.4933 91.5355 47.7889H86.8651C85.0417 52.4627 81.3111 54.1149 79.1614 54.3199H19.0896C14.2035 54.3199 4.43147 51.1984 4.43147 38.7123C4.43147 26.6012 13.6254 23.4755 18.6365 23.3835C18.7916 23.3806 18.9427 23.3807 19.0896 23.3835C19.0896 23.212 19.0924 23.0401 19.0981 22.8677L19.1007 22.7981C19.4275 14.1586 26.9238 4.43147 37.6738 4.43147C46.4687 4.43147 52.5064 10.563 54.4259 13.6288Z" fill="#0075FF"/>
<path d="M23.5878 45.4299C21.6557 45.4299 20.0958 45.0488 18.9082 44.2866C18.341 43.9498 18.0574 43.4712 18.0574 42.8508C18.0574 42.4962 18.1549 42.2126 18.3498 41.9999C18.5448 41.7695 18.7841 41.6543 19.0677 41.6543C19.3691 41.6543 19.7856 41.7961 20.3174 42.0797C20.8846 42.3456 21.3987 42.5494 21.8596 42.6912C22.3382 42.833 22.9408 42.9039 23.6676 42.9039C24.4121 42.9039 24.9882 42.7799 25.3959 42.5317C25.8213 42.2835 26.034 41.9379 26.034 41.4947C26.034 41.1934 25.9454 40.9541 25.7681 40.7768C25.6086 40.5996 25.3073 40.44 24.8641 40.2982C24.4387 40.1387 23.7828 39.9614 22.8965 39.7665C21.3189 39.4474 20.1845 38.9954 19.4932 38.4104C18.8196 37.8255 18.4828 37.0189 18.4828 35.9908C18.4828 35.2109 18.7132 34.5107 19.1741 33.8903C19.635 33.2522 20.2642 32.7647 21.0619 32.4279C21.8773 32.0734 22.799 31.8962 23.8271 31.8962C24.5716 31.8962 25.2895 31.9937 25.9808 32.1886C26.6721 32.3659 27.2925 32.6318 27.8421 32.9863C28.4093 33.3408 28.6929 33.8106 28.6929 34.3955C28.6929 34.75 28.5954 35.0514 28.4004 35.2995C28.2054 35.53 27.9661 35.6452 27.6825 35.6452C27.4875 35.6452 27.2925 35.6097 27.0976 35.5388C26.9203 35.4502 26.6899 35.3261 26.4063 35.1666C25.8922 34.9007 25.4491 34.7057 25.0768 34.5816C24.7046 34.4398 24.2437 34.3689 23.6942 34.3689C23.0383 34.3689 22.5154 34.5019 22.1255 34.7678C21.7532 35.0337 21.5671 35.397 21.5671 35.8579C21.5671 36.3011 21.7621 36.6378 22.152 36.8683C22.542 37.0987 23.2954 37.3292 24.4121 37.5596C25.5997 37.8077 26.5303 38.0914 27.2039 38.4104C27.8775 38.7295 28.3561 39.1283 28.6397 39.6069C28.9411 40.0855 29.0917 40.6971 29.0917 41.4416C29.0917 42.6469 28.5865 43.613 27.5762 44.3397C26.5835 45.0665 25.2541 45.4299 23.5878 45.4299ZM43.3526 42.638C43.7071 42.9748 43.8844 43.3559 43.8844 43.7814C43.8844 44.1891 43.7337 44.5524 43.4324 44.8715C43.1488 45.1906 42.812 45.3501 42.422 45.3501C42.0321 45.3501 41.6687 45.1906 41.3319 44.8715L35.1101 39.2347V43.7814C35.1101 44.2954 34.9506 44.6854 34.6315 44.9513C34.3124 45.2172 33.9136 45.3501 33.435 45.3501C32.9564 45.3501 32.5576 45.2172 32.2385 44.9513C31.9372 44.6854 31.7865 44.2954 31.7865 43.7814V27.9079C31.7865 27.3938 31.9372 27.0038 32.2385 26.7379C32.5576 26.4721 32.9564 26.3391 33.435 26.3391C33.9136 26.3391 34.3124 26.4721 34.6315 26.7379C34.9506 27.0038 35.1101 27.3938 35.1101 27.9079V37.9052L40.8001 32.4545C41.1192 32.1355 41.4825 31.9759 41.8902 31.9759C42.2979 31.9759 42.6525 32.1266 42.9538 32.4279C43.2551 32.7293 43.4058 33.0838 43.4058 33.4915C43.4058 33.8992 43.2374 34.2714 42.9006 34.6082L38.7262 38.4902L43.3526 42.638ZM54.8487 32.9065C54.9905 32.5875 55.1767 32.357 55.4071 32.2152C55.6553 32.0557 55.9212 31.9759 56.2048 31.9759C56.6125 31.9759 56.9758 32.1177 57.2949 32.4014C57.6317 32.6672 57.8001 33.004 57.8001 33.4117C57.8001 33.6067 57.7469 33.8106 57.6406 34.0233L50.3818 49.2321C50.0805 49.8348 49.6107 50.1361 48.9726 50.1361C48.5649 50.1361 48.2015 50.0031 47.8825 49.7373C47.5811 49.4891 47.4305 49.17 47.4305 48.7801C47.4305 48.5851 47.4836 48.3635 47.59 48.1153L49.398 44.3131L44.4525 34.0233C44.3639 33.846 44.3196 33.6422 44.3196 33.4117C44.3196 33.004 44.488 32.6584 44.8248 32.3748C45.1793 32.0912 45.5781 31.9493 46.0213 31.9493C46.3226 31.9493 46.5973 32.0291 46.8455 32.1886C47.0937 32.3305 47.2887 32.5609 47.4305 32.88L51.1529 41.0959L54.8487 32.9065ZM67.3286 31.8962C68.8885 31.8962 70.0496 32.3393 70.8118 33.2256C71.574 34.1119 71.9551 35.4502 71.9551 37.2405V43.7814C71.9551 44.2777 71.8044 44.6677 71.5031 44.9513C71.2195 45.2349 70.8206 45.3767 70.3066 45.3767C69.7925 45.3767 69.3848 45.2349 69.0835 44.9513C68.7822 44.6677 68.6315 44.2777 68.6315 43.7814V37.4266C68.6315 36.4163 68.4365 35.6806 68.0465 35.2198C67.6743 34.7589 67.0805 34.5285 66.2651 34.5285C65.3079 34.5285 64.5368 34.8298 63.9519 35.4325C63.3846 36.0352 63.101 36.8417 63.101 37.8521V43.7814C63.101 44.2777 62.9503 44.6677 62.649 44.9513C62.3477 45.2349 61.94 45.3767 61.4259 45.3767C60.9119 45.3767 60.5042 45.2349 60.2028 44.9513C59.9192 44.6677 59.7774 44.2777 59.7774 43.7814V33.4915C59.7774 33.0306 59.9281 32.6584 60.2294 32.3748C60.5308 32.0912 60.9385 31.9493 61.4525 31.9493C61.9134 31.9493 62.2856 32.0912 62.5692 32.3748C62.8706 32.6407 63.0212 32.9952 63.0212 33.4383V34.1562C63.4644 33.4295 64.0582 32.8711 64.8027 32.4811C65.5472 32.0912 66.3892 31.8962 67.3286 31.8962ZM81.2601 45.4299C79.9307 45.4299 78.7608 45.1551 77.7504 44.6056C76.7578 44.0561 75.9867 43.2673 75.4372 42.2392C74.8877 41.2111 74.6129 40.0146 74.6129 38.6497C74.6129 37.2848 74.8877 36.0972 75.4372 35.0868C75.9867 34.0587 76.7578 33.2699 77.7504 32.7204C78.7608 32.1709 79.9307 31.8962 81.2601 31.8962C82.5896 31.8962 83.7506 32.1709 84.7433 32.7204C85.7536 33.2699 86.5247 34.0587 87.0565 35.0868C87.606 36.0972 87.8807 37.2848 87.8807 38.6497C87.8807 40.0146 87.606 41.2111 87.0565 42.2392C86.5247 43.2673 85.7536 44.0561 84.7433 44.6056C83.7506 45.1551 82.5896 45.4299 81.2601 45.4299ZM81.2335 42.8508C82.3148 42.8508 83.1391 42.4962 83.7063 41.7872C84.2735 41.0782 84.5571 40.0323 84.5571 38.6497C84.5571 37.2848 84.2735 36.2479 83.7063 35.5388C83.1391 34.8121 82.3237 34.4487 81.2601 34.4487C80.1966 34.4487 79.3723 34.8121 78.7874 35.5388C78.2201 36.2479 77.9365 37.2848 77.9365 38.6497C77.9365 40.0323 78.2201 41.0782 78.7874 41.7872C79.3546 42.4962 80.17 42.8508 81.2335 42.8508ZM101.473 26.3391C101.969 26.3391 102.377 26.4809 102.696 26.7645C103.015 27.0481 103.175 27.4204 103.175 27.8813V43.7814C103.175 44.26 103.024 44.6411 102.723 44.9247C102.421 45.2083 102.022 45.3501 101.526 45.3501C101.03 45.3501 100.631 45.2083 100.33 44.9247C100.028 44.6411 99.8776 44.26 99.8776 43.7814V43.1166C99.4876 43.8434 98.9204 44.4106 98.1759 44.8183C97.4492 45.226 96.6161 45.4299 95.6766 45.4299C94.5598 45.4299 93.5583 45.1463 92.672 44.579C91.8035 44.0118 91.121 43.2141 90.6247 42.186C90.1461 41.1402 89.9068 39.9437 89.9068 38.5965C89.9068 37.2494 90.1461 36.0706 90.6247 35.0602C91.121 34.0499 91.8035 33.2699 92.672 32.7204C93.5406 32.1709 94.5421 31.8962 95.6766 31.8962C96.6161 31.8962 97.4492 32.0912 98.1759 32.4811C98.9027 32.8711 99.4611 33.4206 99.851 34.1296V27.8281C99.851 27.3849 99.9928 27.0304 100.276 26.7645C100.578 26.4809 100.977 26.3391 101.473 26.3391ZM96.554 42.8508C97.6176 42.8508 98.4329 42.4874 99.0002 41.7606C99.5851 41.0339 99.8776 39.9969 99.8776 38.6497C99.8776 37.3026 99.5851 36.2745 99.0002 35.5654C98.4329 34.8387 97.6264 34.4753 96.5806 34.4753C95.517 34.4753 94.6928 34.8298 94.1078 35.5388C93.5229 36.2479 93.2304 37.2671 93.2304 38.5965C93.2304 39.9437 93.5229 40.9895 94.1078 41.734C94.6928 42.4785 95.5082 42.8508 96.554 42.8508ZM116.883 41.6543C117.185 41.6543 117.424 41.7695 117.601 41.9999C117.796 42.2304 117.894 42.5406 117.894 42.9305C117.894 43.48 117.566 43.9409 116.91 44.3131C116.307 44.6499 115.625 44.9247 114.863 45.1374C114.1 45.3324 113.374 45.4299 112.682 45.4299C110.591 45.4299 108.933 44.8272 107.71 43.6218C106.487 42.4165 105.876 40.768 105.876 38.6763C105.876 37.3469 106.141 36.1681 106.673 35.14C107.205 34.1119 107.95 33.3142 108.907 32.747C109.882 32.1798 110.981 31.8962 112.204 31.8962C113.374 31.8962 114.393 32.1532 115.261 32.6672C116.13 33.1813 116.804 33.9081 117.282 34.8475C117.761 35.787 118 36.8949 118 38.1711C118 38.9333 117.663 39.3144 116.99 39.3144H109.146C109.252 40.5375 109.598 41.4416 110.183 42.0265C110.768 42.5937 111.619 42.8773 112.736 42.8773C113.303 42.8773 113.799 42.8064 114.224 42.6646C114.668 42.5228 115.164 42.3278 115.713 42.0797C116.245 41.7961 116.635 41.6543 116.883 41.6543ZM112.284 34.236C111.379 34.236 110.653 34.5196 110.103 35.0868C109.571 35.6541 109.252 36.4694 109.146 37.533H115.155C115.12 36.4517 114.854 35.6363 114.357 35.0868C113.861 34.5196 113.17 34.236 112.284 34.236Z" fill="white"/>
</svg>
